<svg width="20" height="20" viewBox="0 0 20 20" fill="none" xmlns="http://www.w3.org/2000/svg">
<path fill-rule="evenodd" clip-rule="evenodd" d="M9.99967 17.9664C14.3996 17.9664 17.9664 14.3996 17.9664 9.99967C17.9664 5.59978 14.3996 2.03296 9.99967 2.03296C5.59978 2.03296 2.03296 5.59978 2.03296 9.99967C2.03296 14.3996 5.59978 17.9664 9.99967 17.9664ZM9.99967 19.1663C15.0623 19.1663 19.1663 15.0623 19.1663 9.99967C19.1663 4.93706 15.0623 0.833008 9.99967 0.833008C4.93706 0.833008 0.833008 4.93706 0.833008 9.99967C0.833008 15.0623 4.93706 19.1663 9.99967 19.1663Z" fill="black"/>
<path d="M7.74512 12.9404V6.2207H10.3658C10.9546 6.2207 11.457 6.3135 11.8729 6.49909C12.2889 6.68468 12.6089 6.95347 12.8329 7.30546C13.0569 7.65744 13.1689 8.07662 13.1689 8.563C13.1689 9.04938 13.0569 9.46857 12.8329 9.82055C12.6089 10.1661 12.2889 10.4349 11.8729 10.6269C11.457 10.8125 10.9546 10.9053 10.3658 10.9053H8.27309L8.70508 10.4541V12.9404H7.74512ZM8.70508 10.5501L8.27309 10.0701H10.337C10.9514 10.0701 11.4154 9.93895 11.7289 9.67656C12.0489 9.41417 12.2089 9.04298 12.2089 8.563C12.2089 8.08302 12.0489 7.71184 11.7289 7.44945C11.4154 7.18706 10.9514 7.05587 10.337 7.05587H8.27309L8.70508 6.57589V10.5501Z" fill="black"/>
</svg>
