<svg width="20" height="20" viewBox="0 0 20 20" fill="none" xmlns="http://www.w3.org/2000/svg">
<path fill-rule="evenodd" clip-rule="evenodd" d="M19.1377 5.21231L16.1257 15.4741H3.25653L0.352051 5.2076L1.31432 4.93537L4.0129 14.4741H15.377L18.1781 4.93066L19.1377 5.21231Z" fill="black"/>
<path fill-rule="evenodd" clip-rule="evenodd" d="M17.1322 6.08612C16.6004 5.75926 16.0286 5.52706 15.5896 5.57833C15.1396 5.63085 14.8215 5.88594 14.3596 6.25621L14.3535 6.26112C13.9149 6.61279 13.3504 7.05874 12.5123 7.09952C11.6684 7.14058 11.0746 6.71245 10.6276 6.39024C10.6132 6.37984 10.599 6.36955 10.5848 6.35939C10.1032 6.01289 9.77359 5.79757 9.30547 5.83332C9.07091 5.85123 8.92313 5.89368 8.80957 5.94425C8.69012 5.99743 8.58544 6.06914 8.42987 6.18448C8.41321 6.19683 8.3963 6.20942 8.37909 6.22223C8.0613 6.45879 7.64117 6.77151 6.81918 7.07007C5.80076 7.43997 5.02285 7.06957 4.44424 6.66037C4.30238 6.56004 4.16879 6.455 4.04721 6.35814C4.02544 6.3408 4.00418 6.32381 3.98335 6.30717C3.8844 6.22815 3.79507 6.1568 3.7065 6.09062C3.48449 5.92475 3.33769 5.84746 3.22536 5.82539C2.9507 5.77143 2.54863 5.89814 2.13576 6.12219C1.94504 6.22569 1.77837 6.33532 1.65909 6.41948C1.59981 6.46131 1.55312 6.49621 1.52203 6.52003C1.5065 6.53193 1.49492 6.54102 1.48766 6.54677L1.48009 6.55282L1.47916 6.55356C1.47916 6.55356 1.47932 6.55344 1.16291 6.16626C0.846498 5.77908 0.846683 5.77893 0.846683 5.77893L0.848784 5.77722L0.85289 5.7739L0.866423 5.7631C0.87776 5.75411 0.893691 5.74163 0.913831 5.7262C0.954068 5.69537 1.01135 5.6526 1.08257 5.60235C1.22429 5.50236 1.4248 5.37021 1.65877 5.24324C2.09529 5.00635 2.77263 4.7173 3.41813 4.8441C3.76588 4.91242 4.06589 5.1108 4.30507 5.2895C4.40784 5.36628 4.51233 5.44977 4.61147 5.52897C4.63134 5.54485 4.65099 5.56055 4.67037 5.57599C4.79003 5.67133 4.90473 5.76118 5.02167 5.84388C5.47824 6.16677 5.90361 6.33865 6.47778 6.13011C7.16239 5.88145 7.49079 5.63688 7.78175 5.4202C7.79937 5.40708 7.81686 5.39406 7.83428 5.38114C7.99333 5.26322 8.17425 5.13244 8.40278 5.03068C8.6372 4.9263 8.89977 4.86135 9.22932 4.83618C10.0894 4.7705 10.691 5.20357 11.1444 5.52999C11.1526 5.5359 11.1607 5.54177 11.1689 5.5476C11.655 5.89737 11.9888 6.12377 12.4637 6.10066C12.9468 6.07715 13.2848 5.83619 13.728 5.48088C13.7516 5.4619 13.7757 5.44247 13.8002 5.42271C14.207 5.09464 14.7315 4.67167 15.4736 4.58503C16.2732 4.49168 17.0994 4.89216 17.6558 5.23412C17.9484 5.41393 18.1977 5.59752 18.3737 5.73582C18.462 5.80522 18.5327 5.86387 18.5821 5.90583C18.6067 5.92682 18.6261 5.94368 18.6398 5.95567L18.6559 5.96993L18.6606 5.97416L18.6621 5.97552L18.6629 5.9762C18.6629 5.9762 18.663 5.97637 18.3274 6.34702C17.9918 6.71768 17.992 6.71781 17.992 6.71781L17.99 6.71603L17.9795 6.70677C17.9698 6.69818 17.9545 6.68489 17.9342 6.66761C17.8935 6.63303 17.8328 6.58266 17.7558 6.52214C17.6011 6.40058 17.3838 6.24073 17.1322 6.08612Z" fill="black"/>
<path d="M8.44491 10.2022C8.44491 10.7545 7.99717 11.2022 7.44487 11.2022C6.89256 11.2022 6.44482 10.7545 6.44482 10.2022C6.44482 9.64988 6.89256 9.20215 7.44487 9.20215C7.99717 9.20215 8.44491 9.64988 8.44491 10.2022Z" fill="black"/>
<path d="M12.9454 10.2022C12.9454 10.7545 12.4977 11.2022 11.9454 11.2022C11.393 11.2022 10.9453 10.7545 10.9453 10.2022C10.9453 9.64988 11.393 9.20215 11.9454 9.20215C12.4977 9.20215 12.9454 9.64988 12.9454 10.2022Z" fill="black"/>
</svg>
