<svg width="20" height="23" viewBox="0 0 20 23" fill="none" xmlns="http://www.w3.org/2000/svg">
<g clip-path="url(#clip0_251_6981)">
<path fill-rule="evenodd" clip-rule="evenodd" d="M5.33518 14.0375C4.89089 14.5612 4.81284 15.366 5.33059 15.8989C5.85819 16.442 6.654 16.3536 7.17812 15.9309C7.23966 16.0414 7.31089 16.134 7.37994 16.205C7.94517 16.7868 8.81822 16.6439 9.33526 16.1416L9.68097 15.8057C9.74188 15.9131 9.81192 16.0033 9.87994 16.0733C10.4452 16.6551 11.3182 16.5122 11.8353 16.0099L15.2151 12.7263C15.4148 12.5323 15.4195 12.2131 15.2254 12.0134C15.0314 11.8136 14.7122 11.809 14.5124 12.0031L11.1326 15.2866C10.9034 15.5093 10.6801 15.4498 10.6032 15.3707C10.5683 15.3347 10.521 15.2565 10.5137 15.1713C10.5086 15.1126 10.5155 14.995 10.6872 14.8282L11.8138 13.7337C12.0136 13.5396 12.0182 13.2204 11.8241 13.0207C11.6301 12.821 11.3109 12.8163 11.1112 13.0104L8.63259 15.4183C8.40336 15.641 8.18014 15.5815 8.10322 15.5024C8.07177 15.47 8.02319 15.3915 8.01541 15.3036C8.01004 15.2429 8.01722 15.125 8.18721 14.9599L10.6658 12.5519C10.8655 12.3579 10.8701 12.0387 10.6761 11.839C10.482 11.6392 10.1628 11.6346 9.96309 11.8287L6.58324 15.1122C6.35401 15.3349 6.13079 15.2754 6.05387 15.1963C5.96544 15.1052 5.9218 14.8637 6.13785 14.6538L9.51771 11.3702C9.71744 11.1762 9.72205 10.857 9.52802 10.6572C9.33398 10.4575 9.01477 10.4529 8.81504 10.6469L6.33648 13.0549C6.16386 13.2226 6.04553 13.2265 5.98785 13.2202C5.90403 13.211 5.83028 13.1628 5.79945 13.131C5.72202 13.0513 5.67058 12.8107 5.90011 12.5877L9.7216 8.87506C9.92133 8.68103 9.92594 8.36182 9.7319 8.16209C9.53786 7.96236 9.21865 7.95775 9.01893 8.15178L5.19743 11.8644C4.67979 12.3673 4.51069 13.2517 5.07617 13.8337C5.14346 13.903 5.23076 13.9746 5.33518 14.0375Z" fill="#111111"/>
<path fill-rule="evenodd" clip-rule="evenodd" d="M7.1704 8.20801C7.10663 8.17598 7.05837 8.12527 7.02938 8.05917L7.02881 8.05787C6.93474 7.845 7.07 7.48316 7.41068 7.38667L7.41545 7.38532L9.1916 6.86333C10.9019 6.35679 11.901 6.15892 12.6386 6.23351C13.3191 6.30234 13.8252 6.61025 14.5272 7.33282C15.2 8.02539 15.5745 8.82039 15.6032 9.60629C15.6314 10.3816 15.3258 11.2138 14.5124 12.0041C14.3126 12.1981 14.308 12.5173 14.5021 12.717C14.6961 12.9168 15.0153 12.9214 15.215 12.7273C16.2042 11.7664 16.6509 10.6679 16.6109 9.56959C16.5713 8.48191 16.0571 7.46043 15.2504 6.63015C14.473 5.82987 13.7594 5.33332 12.74 5.23022C11.7777 5.1329 10.5964 5.39559 8.90578 5.89627C8.9056 5.89633 8.90596 5.89622 8.90578 5.89627L7.13326 6.41717C6.28309 6.65961 5.73341 7.62016 6.10616 8.46481C6.22936 8.74535 6.44381 8.97151 6.71774 9.10911C6.9868 9.24428 7.29071 9.28312 7.58514 9.23511L9.44813 9.00022C9.7244 8.96539 9.92013 8.71319 9.8853 8.43691C9.85047 8.16063 9.59826 7.9649 9.32199 7.99974L7.44904 8.23588C7.44167 8.23681 7.43432 8.2379 7.42699 8.23915C7.32361 8.25686 7.23555 8.24074 7.1704 8.20801Z" fill="#111111"/>
</g>
<path fill-rule="evenodd" clip-rule="evenodd" d="M19.2662 11.3406L16.2583 21.5883H3.4039L0.503418 11.3359L1.47374 11.0614L4.1666 20.5799H15.5034L18.2986 11.0566L19.2662 11.3406Z" fill="black"/>
<path fill-rule="evenodd" clip-rule="evenodd" d="M17.2568 12.2159C16.726 11.8897 16.1566 11.6587 15.7201 11.7097C15.2724 11.762 14.9558 12.0158 14.4942 12.3859L14.4888 12.3902C14.0509 12.7413 13.4863 13.1875 12.6478 13.2283C11.8036 13.2694 11.2095 12.841 10.7635 12.5194C10.749 12.509 10.7347 12.4987 10.7205 12.4885C10.2396 12.1425 9.91197 11.9287 9.44673 11.9643C9.21305 11.9821 9.06611 12.0244 8.95336 12.0746C8.83467 12.1274 8.73055 12.1987 8.57526 12.3138C8.55863 12.3262 8.54176 12.3387 8.52458 12.3515C8.2072 12.5878 7.78735 12.9003 6.96609 13.1986C5.94719 13.5687 5.16884 13.1979 4.59062 12.789C4.44888 12.6887 4.31543 12.5838 4.19405 12.4871C4.17231 12.4698 4.15108 12.4528 4.13028 12.4362C4.0315 12.3573 3.94241 12.2861 3.85405 12.2201C3.63252 12.0546 3.48675 11.9781 3.3758 11.9563C3.10349 11.9028 2.7035 12.0284 2.29148 12.252C2.1013 12.3552 1.9351 12.4646 1.81613 12.5485C1.75701 12.5902 1.71046 12.625 1.67947 12.6488C1.66399 12.6606 1.65245 12.6697 1.64523 12.6754L1.63769 12.6814L1.6368 12.6821C1.63687 12.6821 1.63695 12.682 1.3179 12.2916C0.99884 11.9012 0.998931 11.9011 0.999027 11.901L1.00114 11.8993L1.00525 11.896L1.01879 11.8852C1.03013 11.8762 1.04605 11.8637 1.06618 11.8483C1.10639 11.8175 1.16363 11.7747 1.23478 11.7245C1.37637 11.6246 1.57671 11.4926 1.81049 11.3657C2.24637 11.1292 2.92393 10.8398 3.57018 10.9668C3.91852 11.0352 4.21878 11.2338 4.45763 11.4123C4.56029 11.489 4.66468 11.5724 4.76365 11.6515C4.78348 11.6673 4.80309 11.683 4.82243 11.6984C4.94187 11.7936 5.05627 11.8832 5.17288 11.9656C5.62805 12.2875 6.0509 12.4581 6.62183 12.2508C7.30455 12.0028 7.63193 11.759 7.92224 11.5428C7.93984 11.5297 7.9573 11.5167 7.97469 11.5038C8.13348 11.3861 8.31448 11.2552 8.54316 11.1534C8.77778 11.0489 9.04048 10.9839 9.36994 10.9588C10.2304 10.8931 10.8322 11.3264 11.2848 11.6521C11.293 11.6581 11.3013 11.664 11.3094 11.6699C11.795 12.0192 12.1267 12.244 12.5988 12.2211C13.0793 12.1977 13.4156 11.9582 13.858 11.6035C13.8817 11.5845 13.9058 11.5651 13.9303 11.5453C14.3363 11.2179 14.8609 10.7947 15.6032 10.7081C16.4032 10.6147 17.2293 11.0153 17.7848 11.3568C18.0771 11.5364 18.3262 11.7198 18.502 11.8579C18.5902 11.9273 18.6608 11.9858 18.7101 12.0278C18.7348 12.0487 18.7542 12.0656 18.7678 12.0776L18.7839 12.0918L18.7886 12.0961L18.7901 12.0974L18.7909 12.0981C18.791 12.0982 18.7911 12.0983 18.4527 12.472C18.1142 12.8458 18.1143 12.8459 18.1144 12.8459L18.1124 12.8442L18.102 12.835C18.0923 12.8264 18.0771 12.8132 18.0568 12.7959C18.0162 12.7614 17.9558 12.7112 17.8789 12.6508C17.7246 12.5296 17.5078 12.3701 17.2568 12.2159ZM1.6368 12.6821C1.63671 12.6822 1.63673 12.6822 1.6368 12.6821V12.6821Z" fill="black"/>
<defs>
<clipPath id="clip0_251_6981">
<rect width="13.1806" height="15.0792" fill="white" transform="matrix(0.696816 0.71725 0.71725 -0.696816 0 11.4922)"/>
</clipPath>
</defs>
</svg>
