<svg xmlns="http://www.w3.org/2000/svg" aria-hidden="true" style="position:absolute;width:0;height:0;overflow:hidden"><defs><symbol id="icon-shopping-cart" viewBox="0 0 32 32" fill="transparent" ><path stroke-linecap="round" stroke-linejoin="round" stroke-width="1.333" d="M12 29.333a1.333 1.333 0 1 0 0-2.667 1.333 1.333 0 0 0 0 2.667zM26.667 29.333a1.333 1.333 0 1 0 0-2.667 1.333 1.333 0 0 0 0 2.667zM1.333 1.333h5.333l3.573 17.853a2.671 2.671 0 0 0 2.666 2.147h12.96a2.667 2.667 0 0 0 2.666-2.147l2.133-11.187H19.331"/></symbol><symbol id="icon-chevron-down" viewBox="0 0 32 32" fill="transparent"><path stroke-linecap="round" stroke-linejoin="round" stroke-width="1.333" d="m8 12 8 8 8-8"/></symbol><symbol id="icon-check-circle" fill="transparent" viewBox="0 0 32 32"><path stroke-linecap="round" stroke-linejoin="round" stroke-width="2.667" d="M29.333 14.773V16a13.333 13.333 0 1 1-7.907-12.187"/><path stroke-linecap="round" stroke-linejoin="round" stroke-width="2.667" d="M29.333 5.333 16 18.68l-4-4"/></symbol><symbol id="icon-alert-circle" fill="transparent" viewBox="0 0 32 32"><path stroke-linecap="round" stroke-linejoin="round" stroke-width="2.667" d="M16 29.333c7.364 0 13.333-5.97 13.333-13.333S23.363 2.667 16 2.667C8.636 2.667 2.667 8.637 2.667 16S8.637 29.333 16 29.333zM16 10.667V16M16 21.333h.013"/></symbol><symbol id="icon-chevron-right" viewBox="0 0 32 32"><path stroke-linecap="round" stroke-linejoin="round" stroke-width="2.667" d="m12 24 8-8-8-8"/></symbol><symbol id="icon-chevron-left" viewBox="0 0 32 32"><path stroke-linecap="round" stroke-linejoin="round" stroke-width="2.667" d="m20 24-8-8 8-8"/></symbol><symbol id="icon-delivery" viewBox="0 0 32 32"><path d="M4 16h12v2H4v-2zm-2-5h10v2H2v-2z"/><path d="m29.919 16.606-3-7A.997.997 0 0 0 26 9h-3V7a.997.997 0 0 0-1-1H6v2h15v12.556A4 4 0 0 0 19.142 23h-6.284a3.999 3.999 0 1 0 0 2h6.284A3.983 3.983 0 0 0 23 28.002 3.98 3.98 0 0 0 26.858 25H29a.997.997 0 0 0 1-1v-7a.985.985 0 0 0-.081-.394zM9 26a1.997 1.997 0 0 1-1.848-1.235 2.007 2.007 0 0 1 .433-2.18A1.998 1.998 0 0 1 11 24a2.005 2.005 0 0 1-2 2zm14-15h2.34l2.144 5H23v-5zm0 15a1.997 1.997 0 0 1-1.848-1.235 2.007 2.007 0 0 1 .433-2.18A1.998 1.998 0 0 1 25 24a2 2 0 0 1-2 2zm5-3h-1.142A3.994 3.994 0 0 0 23 20v-2h5v5z"/></symbol><symbol id="icon-clock" viewBox="0 0 32 32" fill="transparent"><path stroke-linecap="round" stroke-linejoin="round" stroke-width="2.667" d="M16 29.333c7.364 0 13.333-5.97 13.333-13.333S23.363 2.667 16 2.667C8.636 2.667 2.667 8.637 2.667 16S8.637 29.333 16 29.333z"/><path stroke-linecap="round" stroke-linejoin="round" stroke-width="2.667" d="M16 8v8l5.333 2.667"/></symbol><symbol id="icon-x" viewBox="0 0 32 32"><path stroke-linecap="round" stroke-linejoin="round" stroke-width="2.56" d="M23.68 8.32 8.32 23.68M8.32 8.32l15.36 15.36"/></symbol><symbol id="icon-menu" viewBox="0 0 32 32"><path stroke-linecap="round" stroke-linejoin="round" stroke-width="2" d="M4 16h24M4 8h24M4 24h24"/></symbol><symbol id="icon-linkedin" viewBox="0 0 32 32"><path d="M21.333 1.333h-4.667V22c0 2-2 4-4 4s-4-.667-4-4c0-2.667 2.532-4.452 4.667-4v-4.667C5.173 13.333 4 20 4 22s1.303 8.667 8.667 8.667c6.029 0 8.667-4.667 8.667-8v-12c1.528 1.357 3.896 1.809 6.667 2V8c-4.023 0-6.667-3.539-6.667-6.667z"/></symbol><symbol id="icon-instagram" viewBox="0 0 32 32"><path stroke-linecap="round" stroke-linejoin="round" stroke-width="2.667" d="M22.667 2.667H9.334a6.667 6.667 0 0 0-6.667 6.667v13.333a6.667 6.667 0 0 0 6.667 6.667h13.333a6.667 6.667 0 0 0 6.667-6.667V9.334a6.667 6.667 0 0 0-6.667-6.667z" /><path stroke-linecap="round" stroke-linejoin="round" stroke-width="2.667" d="M21.276 15.218a5.329 5.329 0 0 1-2.878 5.546 5.338 5.338 0 0 1-6.169-.992 5.33 5.33 0 0 1 1.316-8.505 5.336 5.336 0 0 1 6.228.962 5.328 5.328 0 0 1 1.504 2.989zM24 9.333h.013" /></symbol></defs></svg>